<svg width="512" height="512" version="1.0" viewBox="0 0 384 384" xmlns="http://www.w3.org/2000/svg">
  <path d="M0 0h384v384H0z"/>
  <path d="M248.19 115.43c-6.2.7-13.5 3.4-16.6 6.2-1.1 1-2.6 1.8-3.2 1.8-1.1 0-1.4.7-1.1 2.6 0 .3-1.1 1.6-2.6 2.9-1.4 1.4-2.6 2.8-2.6 3.2-.1 3.4-1.6 5.7-4.6 6.9-4.7 2-14.3 11.9-17 17.4-1.2 2.5-3.3 5.5-4.5 6.6-1.3 1.2-2.8 2.9-3.3 3.9-1.8 3-5.4.9-15.1-8.9-5-5-11.2-10.9-13.8-13.1s-5.5-4.7-6.4-5.6c-6.2-5.6-13.2-11-15.7-11.9-3.1-1.2-9.1-.5-11.2 1.2-.7.5-1.7.7-2.3.3-.5-.3-1-.1-1 .4 0 .6-.7 1.1-1.7 1.1-1.6 0-6.4 3.3-9.7 6.6-2.8 2.7-2 9.3 1.8 14.3 2.1 2.8 14.2 14.6 22 21.6 4.4 3.8 10.9 10.1 14.5 13.9 3.6 3.8 8.3 8.6 10.4 10.6 4.5 4.6 6.7 10.4 6 15.9-.5 3.6.5 9.8 2.4 14.6.3 1 .2 1.6-.3 1.3-.5-.4-.5 5.4.1 14.5 1 14 1.3 15.5 3.9 19.4 3.4 5.1 5.1 5.6 19.5 5.7 18.3.2 18.7-.5 18.4-38.4-.1-28-.1-27.9 6.1-34 3.6-3.4 5.6-8.1 5.6-13.3 0-1.8 1-3.6 2.7-5.1 2.5-2.2 2.9-2.2 4-.7 1 1.4 1.3 1.2 2.3-1.7.7-1.7 1.7-3.2 2.2-3.2 1 0 8.9-7.9 12.8-12.6 16.7-20.5 20.3-25.9 19.6-29-1.6-6.3-9.1-14.5-14.1-15.5-1.1-.3-4.5-.2-7.5.1z" fill="#ffaa1e"/>
</svg>
